<svg xmlns="http://www.w3.org/2000/svg" width="146.88" height="27" viewBox="0 0 146.88 27">
  <g id="Group_794" data-name="Group 794" transform="translate(-7211 461.139)">
    <path id="Path_636" data-name="Path 636" d="M26.579,7.5a7.05,7.05,0,0,1-.316-.9,6.228,6.228,0,0,1-.189-.964,4.619,4.619,0,0,1-1.36,1.5,3.4,3.4,0,0,1-2.015.6,4.194,4.194,0,0,1-3.007-1A3.6,3.6,0,0,1,18.636,4a3.275,3.275,0,0,1,1.406-2.829,7.022,7.022,0,0,1,4.1-1h1.871V-.819a1.932,1.932,0,0,0-.471-1.389A1.831,1.831,0,0,0,24.157-2.7a1.821,1.821,0,0,0-1.257.4,1.4,1.4,0,0,0-.442,1.1l-3.237-.011L19.21-1.29A3.154,3.154,0,0,1,20.576-4a5.953,5.953,0,0,1,3.8-1.142,5.546,5.546,0,0,1,3.616,1.131A3.914,3.914,0,0,1,29.38-.8V4.334a9.7,9.7,0,0,0,.132,1.641A8.237,8.237,0,0,0,29.931,7.5ZM23.514,5.264a2.876,2.876,0,0,0,1.573-.436,2.271,2.271,0,0,0,.93-1.01V2.062H24.145a2.237,2.237,0,0,0-1.618.534,1.732,1.732,0,0,0-.551,1.291,1.29,1.29,0,0,0,.413,1A1.6,1.6,0,0,0,23.514,5.264Zm14.934-7.3L37.22-2.071a2.232,2.232,0,0,0-1.228.31,1.964,1.964,0,0,0-.735.872V7.5h-3.34V-4.917h3.111l.149,1.837A3.918,3.918,0,0,1,36.307-4.6a2.52,2.52,0,0,1,1.6-.545,2.5,2.5,0,0,1,.465.04q.212.04.43.1Zm7.2,9.78a5.592,5.592,0,0,1-4.293-1.722,6.157,6.157,0,0,1-1.607-4.373V1.189a6.794,6.794,0,0,1,1.521-4.557,5.049,5.049,0,0,1,4.081-1.779,5.028,5.028,0,0,1,3.9,1.515,5.83,5.83,0,0,1,1.389,4.1V2.291H43.223L43.2,2.36a3.222,3.222,0,0,0,.821,2.012A2.564,2.564,0,0,0,46,5.161a6.448,6.448,0,0,0,1.848-.224,8.494,8.494,0,0,0,1.607-.706L50.363,6.3a6.182,6.182,0,0,1-1.986,1.032A8.606,8.606,0,0,1,45.645,7.744Zm-.3-10.308a1.745,1.745,0,0,0-1.469.712A3.705,3.705,0,0,0,43.211.018l.034.057h4.109v-.3a2.689,2.689,0,0,0-.5-1.7A1.8,1.8,0,0,0,45.346-2.564ZM56.332,4.92h6.153V7.5H52.165V5.519l5.912-7.854H52.348V-4.917h9.941v1.909ZM69.876,7.744a5.592,5.592,0,0,1-4.293-1.722,6.157,6.157,0,0,1-1.607-4.373V1.189A6.794,6.794,0,0,1,65.5-3.368a5.049,5.049,0,0,1,4.081-1.779,5.028,5.028,0,0,1,3.9,1.515A5.83,5.83,0,0,1,74.87.466V2.291H67.454l-.023.069a3.222,3.222,0,0,0,.821,2.012,2.564,2.564,0,0,0,1.98.789,6.448,6.448,0,0,0,1.848-.224,8.494,8.494,0,0,0,1.607-.706L74.594,6.3a6.182,6.182,0,0,1-1.986,1.032A8.606,8.606,0,0,1,69.876,7.744Zm-.3-10.308a1.745,1.745,0,0,0-1.469.712A3.705,3.705,0,0,0,67.443.018l.034.057h4.109v-.3a2.689,2.689,0,0,0-.5-1.7A1.8,1.8,0,0,0,69.578-2.564Zm13.774.528-1.228-.034a2.232,2.232,0,0,0-1.228.31,1.964,1.964,0,0,0-.735.872V7.5h-3.34V-4.917h3.111l.149,1.837A3.918,3.918,0,0,1,81.212-4.6a2.52,2.52,0,0,1,1.6-.545,2.5,2.5,0,0,1,.465.04q.212.04.43.1Zm12.81,5.1h.069L97.85-4.917H101L97.838,7.5h-2.8L92.73,1.357,90.354,7.5H87.565L84.408-4.917h3.145l1.641,7.955h.069l3.4-7.83Zm14.084,2.652a4.17,4.17,0,0,1-1.458,1.5,4.3,4.3,0,0,1-5.1-.729,5.8,5.8,0,0,1-1.108-3.908v-7.5h3.34V2.618a3.224,3.224,0,0,0,.459,1.95,1.608,1.608,0,0,0,1.354.592A3.333,3.333,0,0,0,109.11,4.9a2.324,2.324,0,0,0,.941-.765V-4.917H113.4V7.5h-2.858ZM120.376-4.917V5.6a4.624,4.624,0,0,1-1.159,3.369,4.3,4.3,0,0,1-3.226,1.188,7,7,0,0,1-.838-.046V7.523a2.3,2.3,0,0,0,1.492-.464,2.388,2.388,0,0,0,.367-1.464V-4.917Zm12.6,8.51a4.755,4.755,0,0,1-.849,2.954,2.81,2.81,0,0,1-2.372,1.117,2.652,2.652,0,0,1-1.156-.241,2.373,2.373,0,0,1-.865-.708v3.438h-2.227V-.777h2.013l.13.98a2.653,2.653,0,0,1,.884-.838,2.391,2.391,0,0,1,1.205-.295,2.756,2.756,0,0,1,2.388,1.2,5.362,5.362,0,0,1,.849,3.16Zm-2.235-.172a4.017,4.017,0,0,0-.39-1.9A1.273,1.273,0,0,0,129.16.791,1.685,1.685,0,0,0,128.3,1a1.475,1.475,0,0,0-.562.59V5.221a1.371,1.371,0,0,0,.562.536,1.892,1.892,0,0,0,.876.184,1.285,1.285,0,0,0,1.19-.636,3.362,3.362,0,0,0,.379-1.724ZM136.7,7.5H134.47V-4.917H136.7Z" transform="translate(7221.175 -448.646)" fill="#fff"/>
    <path id="Exclusion_1" data-name="Exclusion 1" d="M13.5,27A13.5,13.5,0,0,1,3.954,3.954,13.5,13.5,0,1,1,23.046,23.046,13.412,13.412,0,0,1,13.5,27ZM8.745,7.475v2.6H14.5L8.561,17.966v1.993H18.933v-2.6H12.749l5.988-7.97V7.475Z" transform="translate(7211 -461.139)" fill="#fff"/>
    <circle id="Ellipse_22" data-name="Ellipse 22" cx="1" cy="1" r="1" transform="translate(7343 -443.139)" fill="#fff"/>
  </g>
</svg>
