<svg xmlns="http://www.w3.org/2000/svg" width="162.39" height="30" viewBox="0 0 162.39 30">
  <g id="Group_793" data-name="Group 793" transform="translate(-6834 457.303)">
    <path id="Path_634" data-name="Path 634" d="M27.418,8.838a7.8,7.8,0,0,1-.349-.99,6.886,6.886,0,0,1-.209-1.066,5.107,5.107,0,0,1-1.5,1.662,3.756,3.756,0,0,1-2.227.66A4.637,4.637,0,0,1,19.8,7.994a3.978,3.978,0,0,1-1.168-3.027A3.621,3.621,0,0,1,20.19,1.839,7.764,7.764,0,0,1,24.727.729H26.8V-.363a2.136,2.136,0,0,0-.52-1.536,2.024,2.024,0,0,0-1.536-.546,2.013,2.013,0,0,0-1.39.438,1.544,1.544,0,0,0-.489,1.212L19.283-.807,19.27-.883a3.487,3.487,0,0,1,1.51-3,6.582,6.582,0,0,1,4.2-1.263,6.132,6.132,0,0,1,4,1.25,4.328,4.328,0,0,1,1.536,3.56V5.336A10.729,10.729,0,0,0,30.66,7.15a9.107,9.107,0,0,0,.463,1.688ZM24.029,6.364a3.18,3.18,0,0,0,1.739-.482A2.511,2.511,0,0,0,26.8,4.765V2.823H24.727a2.473,2.473,0,0,0-1.789.59,1.915,1.915,0,0,0-.609,1.428,1.427,1.427,0,0,0,.457,1.1A1.77,1.77,0,0,0,24.029,6.364ZM40.54-1.708l-1.358-.038a2.468,2.468,0,0,0-1.358.343,2.172,2.172,0,0,0-.812.964V8.838H33.319V-4.893h3.439l.165,2.031a4.332,4.332,0,0,1,1.25-1.682,2.786,2.786,0,0,1,1.77-.6,2.77,2.77,0,0,1,.514.044q.235.044.476.108ZM48.5,9.1a6.182,6.182,0,0,1-4.746-1.9,6.807,6.807,0,0,1-1.777-4.835V1.858A7.511,7.511,0,0,1,43.656-3.18a5.582,5.582,0,0,1,4.512-1.967,5.559,5.559,0,0,1,4.315,1.675,6.446,6.446,0,0,1,1.536,4.531V3.077h-8.2l-.025.076A3.562,3.562,0,0,0,46.7,5.377a2.834,2.834,0,0,0,2.189.872A7.129,7.129,0,0,0,50.934,6a9.391,9.391,0,0,0,1.777-.78l1,2.29a6.835,6.835,0,0,1-2.2,1.141A9.515,9.515,0,0,1,48.5,9.1Zm-.33-11.4a1.929,1.929,0,0,0-1.624.787A4.1,4.1,0,0,0,45.807.564l.038.063h4.543V.3a2.973,2.973,0,0,0-.552-1.885A1.99,1.99,0,0,0,48.167-2.292ZM60.312,5.983h6.8V8.838H55.705V6.646l6.536-8.683H55.909V-4.893H66.9v2.11ZM75.287,9.1a6.182,6.182,0,0,1-4.746-1.9,6.807,6.807,0,0,1-1.777-4.835V1.858A7.511,7.511,0,0,1,70.446-3.18a5.582,5.582,0,0,1,4.512-1.967,5.559,5.559,0,0,1,4.315,1.675,6.446,6.446,0,0,1,1.536,4.531V3.077h-8.2l-.025.076a3.562,3.562,0,0,0,.907,2.225,2.834,2.834,0,0,0,2.189.872A7.129,7.129,0,0,0,77.724,6a9.391,9.391,0,0,0,1.777-.78l1,2.29a6.835,6.835,0,0,1-2.2,1.141A9.515,9.515,0,0,1,75.287,9.1Zm-.33-11.4a1.929,1.929,0,0,0-1.624.787A4.1,4.1,0,0,0,72.6.564l.038.063h4.543V.3a2.973,2.973,0,0,0-.552-1.885A1.99,1.99,0,0,0,74.957-2.292Zm15.229.584-1.358-.038A2.468,2.468,0,0,0,87.47-1.4a2.172,2.172,0,0,0-.812.964V8.838H82.965V-4.893H86.4l.165,2.031a4.332,4.332,0,0,1,1.25-1.682,2.786,2.786,0,0,1,1.77-.6A2.77,2.77,0,0,1,90.1-5.1q.235.044.476.108Zm14.163,5.635h.076l1.789-8.82h3.477L106.2,8.838h-3.1l-2.551-6.795L97.928,8.838H94.844L91.354-4.893h3.477L96.646,3.9h.076l3.756-8.657Zm15.572,2.932a4.611,4.611,0,0,1-1.612,1.662,4.753,4.753,0,0,1-5.641-.806,6.412,6.412,0,0,1-1.225-4.321V-4.893h3.693V3.438a3.565,3.565,0,0,0,.508,2.156,1.778,1.778,0,0,0,1.5.655,3.685,3.685,0,0,0,1.523-.286,2.569,2.569,0,0,0,1.041-.846V-4.893h3.706V8.838h-3.16Zm11.2-11.752V6.73a5.112,5.112,0,0,1-1.282,3.725,4.753,4.753,0,0,1-3.566,1.313,7.74,7.74,0,0,1-.926-.051V8.86a2.538,2.538,0,0,0,1.65-.512A2.64,2.64,0,0,0,127.4,6.73V-4.893Z" transform="translate(6847.217 -443.885)" fill="#3b86fc"/>
    <circle id="Ellipse_19" data-name="Ellipse 19" cx="15" cy="15" r="15" transform="translate(6834 -457.303)" fill="#3b86fc"/>
    <path id="Path_635" data-name="Path 635" d="M5.266,6.08h6.8V8.935H.659V6.742L7.195-1.941H.862V-4.8h10.99v2.11Z" transform="translate(6842.757 -443.982)" fill="#fff"/>
    <circle id="Ellipse_20" data-name="Ellipse 20" cx="1" cy="1" r="1" transform="translate(6980 -437.303)" fill="#cecece"/>
    <path id="Path_644" data-name="Path 644" d="M145.053,4.515a5.258,5.258,0,0,1-.939,3.266,3.107,3.107,0,0,1-2.623,1.235,2.932,2.932,0,0,1-1.278-.267,2.624,2.624,0,0,1-.956-.783v3.8H136.8V-.316h2.225l.144,1.083a2.933,2.933,0,0,1,.977-.926,2.643,2.643,0,0,1,1.333-.326,3.046,3.046,0,0,1,2.64,1.328,5.929,5.929,0,0,1,.939,3.494Zm-2.47-.19a4.441,4.441,0,0,0-.431-2.1,1.407,1.407,0,0,0-1.32-.8,1.863,1.863,0,0,0-.952.229,1.631,1.631,0,0,0-.622.652V6.316a1.516,1.516,0,0,0,.622.593,2.092,2.092,0,0,0,.969.2,1.421,1.421,0,0,0,1.316-.7,3.717,3.717,0,0,0,.419-1.906Zm6.591,4.514H146.7V-4.893h2.47Z" transform="translate(6847.217 -443.885)" fill="#cecece"/>
  </g>
</svg>
